<svg width="231" height="25" viewBox="0 0 231 25" fill="none" xmlns="http://www.w3.org/2000/svg">
<path d="M0.14 0.699998C0.0466664 0.494664 0.0373331 0.326664 0.112 0.195998C0.205333 0.0653307 0.354666 -2.86102e-06 0.56 -2.86102e-06H3.92C4.2 -2.86102e-06 4.43333 0.0653307 4.62 0.195998C4.80667 0.326664 4.94667 0.494664 5.04 0.699998L9.38 10.08H9.66L13.44 0.699998C13.6267 0.233331 14 -2.86102e-06 14.56 -2.86102e-06H17.92C18.1253 -2.86102e-06 18.2653 0.0653307 18.34 0.195998C18.4333 0.326664 18.4333 0.494664 18.34 0.699998L11.9 15.26C11.5827 15.988 11.228 16.6413 10.836 17.22C10.4627 17.7987 10.0147 18.284 9.492 18.676C8.96933 19.068 8.372 19.3667 7.7 19.572C7.028 19.7773 6.23467 19.88 5.32 19.88H4.2C3.73333 19.88 3.5 19.6467 3.5 19.18V16.66C3.5 16.1933 3.73333 15.96 4.2 15.96H5.32C5.80533 15.96 6.188 15.8387 6.468 15.596C6.748 15.3347 6.92533 14.9893 7 14.56L0.14 0.699998ZM30.5688 10.5C30.5688 10.9667 30.3355 11.2 29.8688 11.2H27.3488C26.8821 11.2 26.6488 10.9667 26.6488 10.5V9.94C26.6488 9.51066 26.5181 9.17466 26.2568 8.932C26.0141 8.67066 25.6781 8.54 25.2488 8.54H22.5888C22.1595 8.54 21.8141 8.67066 21.5528 8.932C21.3101 9.17466 21.1888 9.51066 21.1888 9.94V14.98C21.1888 15.4093 21.3101 15.7547 21.5528 16.016C21.8141 16.2587 22.1595 16.38 22.5888 16.38H25.2488C25.6781 16.38 26.0141 16.2587 26.2568 16.016C26.5181 15.7547 26.6488 15.4093 26.6488 14.98V14.42C26.6488 13.9533 26.8821 13.72 27.3488 13.72H29.8688C30.3355 13.72 30.5688 13.9533 30.5688 14.42V15.54C30.5688 16.94 30.1955 18.0133 29.4488 18.76C28.7021 19.5067 27.6288 19.88 26.2288 19.88H21.6088C20.2088 19.88 19.1355 19.5067 18.3888 18.76C17.6421 18.0133 17.2688 16.94 17.2688 15.54V9.38C17.2688 7.98 17.6421 6.90666 18.3888 6.16C19.1355 5.41333 20.2088 5.04 21.6088 5.04H26.2288C27.6288 5.04 28.7021 5.41333 29.4488 6.16C30.1955 6.90666 30.5688 7.98 30.5688 9.38V10.5ZM37.8077 15.82C37.5464 17.164 37.0331 18.1813 36.2677 18.872C35.5024 19.544 34.3824 19.88 32.9077 19.88H32.0677C31.6011 19.88 31.3677 19.6467 31.3677 19.18V17.08C31.3677 16.6133 31.6011 16.38 32.0677 16.38H32.4877C32.9171 16.38 33.2624 16.2587 33.5237 16.016C33.7851 15.7733 33.9531 15.4747 34.0277 15.12L35.9877 6.02C36.0811 5.55333 36.4077 5.32 36.9677 5.32H45.5077C45.9744 5.32 46.2077 5.55333 46.2077 6.02V18.9C46.2077 19.3667 45.9744 19.6 45.5077 19.6H42.9877C42.5211 19.6 42.2877 19.3667 42.2877 18.9V8.82H39.2077L37.8077 15.82ZM57.4473 6.02C57.522 5.81466 57.634 5.64666 57.7833 5.516C57.9327 5.38533 58.1473 5.32 58.4273 5.32H61.2273C61.694 5.32 61.834 5.55333 61.6473 6.02L56.3273 20.44C55.842 21.7653 55.1233 22.8387 54.1713 23.66C53.2193 24.5 51.978 24.92 50.4473 24.92H49.6073C49.1407 24.92 48.9073 24.6867 48.9073 24.22V22.12C48.9073 21.6533 49.1407 21.42 49.6073 21.42H50.4473C50.9327 21.42 51.3153 21.3173 51.5953 21.112C51.8753 20.9253 52.09 20.7013 52.2393 20.44C52.4073 20.16 52.51 19.8333 52.5473 19.46L47.3673 6.02C47.1807 5.55333 47.3207 5.32 47.7873 5.32H50.5873C50.8673 5.32 51.082 5.38533 51.2313 5.516C51.3807 5.64666 51.4927 5.81466 51.5673 6.02L54.5073 14.28H54.7873L57.4473 6.02ZM62.8008 6.02C62.8008 5.55333 63.0342 5.32 63.5008 5.32H73.0208C73.4875 5.32 73.7208 5.55333 73.7208 6.02V8.12C73.7208 8.58666 73.4875 8.82 73.0208 8.82H66.7208V18.9C66.7208 19.3667 66.4875 19.6 66.0208 19.6H63.5008C63.0342 19.6 62.8008 19.3667 62.8008 18.9V6.02ZM84.0398 6.02C84.1891 5.81466 84.3384 5.64666 84.4878 5.516C84.6558 5.38533 84.8798 5.32 85.1598 5.32H87.8198C88.2864 5.32 88.5198 5.55333 88.5198 6.02V18.9C88.5198 19.3667 88.2864 19.6 87.8198 19.6H85.2998C84.8331 19.6 84.5997 19.3667 84.5997 18.9V11.48H84.3198L79.5598 18.9C79.4104 19.1053 79.2518 19.2733 79.0838 19.404C78.9344 19.5347 78.7197 19.6 78.4397 19.6H75.7797C75.3131 19.6 75.0797 19.3667 75.0797 18.9V6.02C75.0797 5.55333 75.3131 5.32 75.7797 5.32H78.2998C78.7664 5.32 78.9997 5.55333 78.9997 6.02V13.44H79.2797L84.0398 6.02ZM105.508 6.02C105.657 5.81466 105.806 5.64666 105.956 5.516C106.124 5.38533 106.348 5.32 106.628 5.32H109.288C109.754 5.32 109.988 5.55333 109.988 6.02V18.9C109.988 19.3667 109.754 19.6 109.288 19.6H106.768C106.301 19.6 106.068 19.3667 106.068 18.9V11.48H105.788L101.028 18.9C100.878 19.1053 100.72 19.2733 100.552 19.404C100.402 19.5347 100.188 19.6 99.9077 19.6H97.2477C96.7811 19.6 96.5477 19.3667 96.5477 18.9V6.02C96.5477 5.55333 96.7811 5.32 97.2477 5.32H99.7677C100.234 5.32 100.468 5.55333 100.468 6.02V13.44H100.748L105.508 6.02ZM131.316 10.5C131.316 10.9667 131.082 11.2 130.616 11.2H128.096C127.629 11.2 127.396 10.9667 127.396 10.5V9.94C127.396 9.51066 127.265 9.17466 127.004 8.932C126.761 8.67066 126.425 8.54 125.996 8.54H123.336C122.906 8.54 122.561 8.67066 122.3 8.932C122.057 9.17466 121.936 9.51066 121.936 9.94V14.98C121.936 15.4093 122.057 15.7547 122.3 16.016C122.561 16.2587 122.906 16.38 123.336 16.38H125.996C126.425 16.38 126.761 16.2587 127.004 16.016C127.265 15.7547 127.396 15.4093 127.396 14.98V14.42C127.396 13.9533 127.629 13.72 128.096 13.72H130.616C131.082 13.72 131.316 13.9533 131.316 14.42V15.54C131.316 16.94 130.942 18.0133 130.196 18.76C129.449 19.5067 128.376 19.88 126.976 19.88H122.356C120.956 19.88 119.882 19.5067 119.136 18.76C118.389 18.0133 118.016 16.94 118.016 15.54V9.38C118.016 7.98 118.389 6.90666 119.136 6.16C119.882 5.41333 120.956 5.04 122.356 5.04H126.976C128.376 5.04 129.449 5.41333 130.196 6.16C130.942 6.90666 131.316 7.98 131.316 9.38V10.5ZM142.195 16.38C142.755 16.38 143.035 16.1 143.035 15.54C143.035 15.0733 143.268 14.84 143.735 14.84H146.255C146.721 14.84 146.955 15.0733 146.955 15.54C146.955 16.94 146.581 18.0133 145.835 18.76C145.088 19.5067 144.015 19.88 142.615 19.88H138.135C136.735 19.88 135.661 19.5067 134.915 18.76C134.168 18.0133 133.795 16.94 133.795 15.54V9.38C133.795 7.98 134.168 6.90666 134.915 6.16C135.661 5.41333 136.735 5.04 138.135 5.04H142.755C144.155 5.04 145.228 5.41333 145.975 6.16C146.721 6.90666 147.095 7.98 147.095 9.38V13.02C147.095 13.4867 146.861 13.72 146.395 13.72H137.715V14.98C137.715 15.4093 137.836 15.7547 138.079 16.016C138.34 16.2587 138.685 16.38 139.115 16.38H142.195ZM137.715 10.64H143.175V9.8C143.175 9.37066 143.044 9.03466 142.783 8.792C142.54 8.53066 142.204 8.4 141.775 8.4H139.115C138.685 8.4 138.34 8.53066 138.079 8.792C137.836 9.03466 137.715 9.37066 137.715 9.8V10.64ZM158.807 5.04C160.207 5.04 161.28 5.41333 162.027 6.16C162.774 6.90666 163.147 7.98 163.147 9.38V15.26C163.147 16.66 162.774 17.7333 162.027 18.48C161.28 19.2267 160.207 19.6 158.807 19.6H153.767V24.22C153.767 24.6867 153.534 24.92 153.067 24.92H150.547C150.08 24.92 149.847 24.6867 149.847 24.22V6.02C149.847 5.55333 150.08 5.32 150.547 5.32H153.067C153.534 5.32 153.767 5.55333 153.767 6.02V6.72H154.047C154.103 6.40266 154.234 6.12266 154.439 5.88C154.607 5.67466 154.84 5.488 155.139 5.32C155.456 5.13333 155.886 5.04 156.427 5.04H158.807ZM157.827 16.1C158.256 16.1 158.592 15.9787 158.835 15.736C159.096 15.4747 159.227 15.1293 159.227 14.7V9.94C159.227 9.51066 159.096 9.17466 158.835 8.932C158.592 8.67066 158.256 8.54 157.827 8.54H155.447C154.962 8.54 154.56 8.69866 154.243 9.016C153.926 9.33333 153.767 9.73466 153.767 10.22V16.1H157.827ZM173.739 5.32C175.139 5.32 176.213 5.684 176.959 6.412C177.706 7.12133 178.079 8.11066 178.079 9.38C178.079 9.86533 177.995 10.2667 177.827 10.584C177.678 10.9013 177.501 11.1627 177.295 11.368C177.071 11.592 176.819 11.7693 176.539 11.9V12.18C176.987 12.292 177.379 12.4787 177.715 12.74C178.014 12.964 178.285 13.2907 178.527 13.72C178.789 14.1307 178.919 14.6907 178.919 15.4C178.919 16.744 178.546 17.78 177.799 18.508C177.053 19.236 175.979 19.6 174.579 19.6H166.599C166.133 19.6 165.899 19.3667 165.899 18.9V6.02C165.899 5.55333 166.133 5.32 166.599 5.32H173.739ZM174.999 15.12C174.999 14.3733 174.626 14 173.879 14H169.819V16.24H173.879C174.626 16.24 174.999 15.8667 174.999 15.12ZM174.159 9.66C174.159 9.38 174.066 9.14666 173.879 8.96C173.693 8.77333 173.459 8.68 173.179 8.68H169.819V10.64H173.179C173.459 10.64 173.693 10.5467 173.879 10.36C174.066 10.1733 174.159 9.94 174.159 9.66ZM190.091 6.02C190.241 5.81466 190.39 5.64666 190.539 5.516C190.707 5.38533 190.931 5.32 191.211 5.32H193.871C194.338 5.32 194.571 5.55333 194.571 6.02V18.9C194.571 19.3667 194.338 19.6 193.871 19.6H191.351C190.885 19.6 190.651 19.3667 190.651 18.9V11.48H190.371L185.611 18.9C185.462 19.1053 185.303 19.2733 185.135 19.404C184.986 19.5347 184.771 19.6 184.491 19.6H181.831C181.365 19.6 181.131 19.3667 181.131 18.9V6.02C181.131 5.55333 181.365 5.32 181.831 5.32H184.351C184.818 5.32 185.051 5.55333 185.051 6.02V13.44H185.331L190.091 6.02ZM210.62 10.5C210.62 10.9667 210.387 11.2 209.92 11.2H207.4C206.934 11.2 206.7 10.9667 206.7 10.5V9.94C206.7 9.51066 206.57 9.17466 206.308 8.932C206.066 8.67066 205.73 8.54 205.3 8.54H202.64C202.211 8.54 201.866 8.67066 201.604 8.932C201.362 9.17466 201.24 9.51066 201.24 9.94V14.98C201.24 15.4093 201.362 15.7547 201.604 16.016C201.866 16.2587 202.211 16.38 202.64 16.38H205.3C205.73 16.38 206.066 16.2587 206.308 16.016C206.57 15.7547 206.7 15.4093 206.7 14.98V14.42C206.7 13.9533 206.934 13.72 207.4 13.72H209.92C210.387 13.72 210.62 13.9533 210.62 14.42V15.54C210.62 16.94 210.247 18.0133 209.5 18.76C208.754 19.5067 207.68 19.88 206.28 19.88H201.66C200.26 19.88 199.187 19.5067 198.44 18.76C197.694 18.0133 197.32 16.94 197.32 15.54V9.38C197.32 7.98 197.694 6.90666 198.44 6.16C199.187 5.41333 200.26 5.04 201.66 5.04H206.28C207.68 5.04 208.754 5.41333 209.5 6.16C210.247 6.90666 210.62 7.98 210.62 9.38V10.5ZM216.319 5.32C216.786 5.32 217.019 5.55333 217.019 6.02V9.52H220.799C222.199 9.52 223.273 9.89333 224.019 10.64C224.766 11.3867 225.139 12.46 225.139 13.86V15.26C225.139 16.66 224.766 17.7333 224.019 18.48C223.273 19.2267 222.199 19.6 220.799 19.6H213.799C213.333 19.6 213.099 19.3667 213.099 18.9V6.02C213.099 5.55333 213.333 5.32 213.799 5.32H216.319ZM221.219 14.28C221.219 13.8507 221.089 13.5147 220.827 13.272C220.585 13.0107 220.249 12.88 219.819 12.88H217.019V16.24H219.819C220.249 16.24 220.585 16.1187 220.827 15.876C221.089 15.6147 221.219 15.2693 221.219 14.84V14.28ZM230.039 5.32C230.506 5.32 230.739 5.55333 230.739 6.02V18.9C230.739 19.3667 230.506 19.6 230.039 19.6H227.519C227.053 19.6 226.819 19.3667 226.819 18.9V6.02C226.819 5.55333 227.053 5.32 227.519 5.32H230.039Z" fill="#1B1C21"/>
</svg>
